<?xml version="1.0" encoding="utf-8"?>
<!-- Generator: Adobe Illustrator 23.0.3, SVG Export Plug-In . SVG Version: 6.00 Build 0)  -->
<svg version="1.2" baseProfile="tiny" id="Layer_1" xmlns:serif="http://www.serif.com/"
	 xmlns="http://www.w3.org/2000/svg" xmlns:xlink="http://www.w3.org/1999/xlink" x="0px" y="0px" viewBox="0 0 649.9 650"
	 xml:space="preserve">
<g id="blender_logo_no_socket" transform="matrix(1,0,0,0.835201,7.78614,-42.9907)">
	<g transform="matrix(4.16667,0,0,4.98882,-191.107,2195.04)">
		<g transform="matrix(5.19226,0,0,5.19226,-1154.33,1375.29)">
			<path fill="#FFFFFF" d="M242.9-332c0.1-1.8,1-3.3,2.3-4.4c1.3-1.1,3-1.8,4.9-1.8c1.9,0,3.6,0.7,4.9,1.8c1.3,1.1,2.2,2.7,2.3,4.4
				c0.1,1.8-0.6,3.5-1.9,4.8c-1.3,1.3-3.2,2.1-5.3,2.1c-2.1,0-4-0.8-5.3-2.1C243.5-328.5,242.8-330.2,242.9-332z"/>
		</g>
		<g transform="matrix(2.66418,0,0,2.66418,-520.324,532.513)">
			<path fill="#265787" d="M242.1-330.5c0.1-1.8,1-3.3,2.3-4.4c1.3-1.1,3-1.8,4.9-1.8c1.9,0,3.6,0.7,4.9,1.8
				c1.3,1.1,2.2,2.7,2.3,4.4c0.1,1.8-0.6,3.5-1.9,4.8c-1.3,1.3-3.2,2.1-5.3,2.1s-4-0.8-5.3-2.1C242.8-327,242-328.6,242.1-330.5z"/>
		</g>
		<g transform="matrix(2.66418,0,0,2.66418,-520.324,532.513)">
			<path fill="#EA7600" d="M230.7-326.9c0,0.7,0.2,2,0.6,3.1c0.7,2.2,1.9,4.3,3.5,6.1c1.7,1.9,3.8,3.4,6.2,4.4
				c2.5,1.1,5.3,1.7,8.1,1.7c2.8,0,5.6-0.6,8.1-1.7c2.4-1.1,4.5-2.6,6.2-4.5c1.6-1.8,2.8-3.9,3.5-6.1c0.4-1.1,0.6-2.3,0.7-3.4
				c0.1-1.1,0.1-2.3-0.1-3.4c-0.3-2.2-1.1-4.3-2.2-6.2c-1.1-1.7-2.5-3.2-4.1-4.5l0,0l-16.6-12.7c0,0,0,0,0,0c-1.1-0.8-2.9-0.8-4.1,0
				c-1.2,0.8-1.4,2.2-0.3,3.1l0,0l6.9,5.6l-21.1,0h0c-1.7,0-3.4,1.1-3.8,2.6c-0.3,1.5,0.8,2.7,2.7,2.7l0,0l10.7,0l-19.1,14.7
				c0,0-0.1,0-0.1,0.1c-1.8,1.4-2.4,3.7-1.2,5.1c1.2,1.5,3.6,1.5,5.4,0l10.4-8.5C230.8-328.7,230.7-327.6,230.7-326.9z M257.5-323
				c-2.1,2.2-5.2,3.4-8.4,3.4c-3.3,0-6.3-1.2-8.4-3.4c-1-1.1-1.8-2.3-2.3-3.6c-0.5-1.3-0.6-2.6-0.5-4c0.1-1.3,0.5-2.6,1.2-3.8
				c0.6-1.1,1.5-2.2,2.6-3c2.1-1.7,4.7-2.6,7.5-2.6c2.8,0,5.4,0.9,7.5,2.6c1.1,0.9,1.9,1.9,2.6,3c0.6,1.2,1,2.4,1.2,3.8
				c0.1,1.4-0.1,2.7-0.5,4C259.3-325.3,258.5-324.1,257.5-323z"/>
		</g>
	</g>
</g>
</svg>
