<svg xmlns="http://www.w3.org/2000/svg" viewBox="0 0 650 650"><path fill="#fff" d="M261.971 338.057c2.163-38.942 21.634-71.393 49.76-95.191s64.902-38.942 106.008-38.942 77.884 15.144 106.009 38.942 47.595 58.413 49.759 95.191c2.163 38.942-12.98 75.72-41.106 103.846s-69.23 45.432-114.662 45.432-86.538-17.308-114.663-45.432-43.268-64.904-41.105-103.846z"/><path fill="#265787" d="M336.154 340.315c1.11-19.981 11.101-36.633 25.532-48.843s33.302-19.982 54.394-19.982 39.963 7.77 54.394 19.982 24.421 29.972 25.531 48.843c1.11 19.981-6.66 38.853-21.091 53.284s-35.522 23.311-58.834 23.311-44.403-8.88-58.834-23.311c-13.321-14.431-22.202-32.193-21.092-53.284z"/><path fill="#ea7600" d="M209.606 380.278c0 7.77 2.22 22.201 6.66 34.412 7.77 24.422 21.092 47.733 38.853 67.715 18.871 21.091 42.183 37.742 68.825 48.843 27.752 12.21 58.834 18.871 89.916 18.871s62.164-6.66 89.916-18.871c26.642-12.211 49.953-28.862 68.825-49.954 17.76-19.98 31.082-43.292 38.852-67.714 4.44-12.21 6.66-25.532 7.77-37.743s1.11-25.531-1.11-37.742c-3.33-24.422-12.21-47.733-24.42-68.825-12.212-18.871-27.753-35.522-45.514-49.953L363.906 78.337c-12.21-8.88-32.192-8.88-45.513 0s-15.54 24.422-3.33 34.413l76.595 62.164H157.432c-18.871 0-37.742 12.21-42.183 28.862-3.33 16.65 8.881 29.972 29.972 29.972H264L51.975 396.928s-1.11 0-1.11 1.11c-19.981 15.542-26.642 41.074-13.32 56.615 13.32 16.65 39.962 16.65 59.943 0l115.448-94.357c-2.22 0-3.33 12.211-3.33 19.982zm297.5 43.293c-23.311 24.421-57.724 37.742-93.246 37.742-36.633 0-69.935-13.32-93.247-37.742-11.1-12.211-19.981-25.532-25.531-39.963s-6.66-28.862-5.55-44.403c1.11-14.431 5.55-28.862 13.32-42.183 6.66-12.21 16.651-24.422 28.862-33.302 23.312-18.872 52.174-28.862 83.256-28.862s59.944 9.99 83.256 28.862c12.21 9.99 21.091 21.091 28.862 33.302 6.66 13.32 11.1 26.642 13.32 42.183 1.11 15.54-1.11 29.972-5.55 44.403-7.77 14.43-16.651 27.752-27.752 39.963z"/></svg>