<svg xmlns="http://www.w3.org/2000/svg" baseProfile="tiny" viewBox="0 0 92 92"><path fill="#f05133" d="M90.2 41.9L50 1.7a5.98 5.98 0 0 0-8.4 0L33.3 10l10.6 10.6c2.5-.8 5.3-.3 7.2 1.7 2 2 2.5 4.8 1.7 7.3L63 39.8c2.5-.8 5.3-.3 7.3 1.7 2.8 2.7 2.8 7.2 0 10a7 7 0 0 1-10 0c-2.1-2.1-2.6-5.1-1.5-7.7l-9.5-9.5v25c.7.3 1.3.8 1.9 1.3 2.8 2.7 2.8 7.2 0 10-2.8 2.7-7.2 2.7-10 0a7 7 0 0 1 0-10c.7-.7 1.5-1.2 2.3-1.5V33.8c-.8-.3-1.6-.9-2.3-1.5-2.1-2.1-2.6-5.1-1.5-7.7L29.2 14.2 1.7 41.7a5.98 5.98 0 0 0 0 8.4l40.1 40.1a5.98 5.98 0 0 0 8.4 0l39.9-39.9c2.4-2.4 2.4-6.1.1-8.4z"/></svg>