<svg xmlns="http://www.w3.org/2000/svg" width="205" height="205" viewBox="0 -24 205 205" fill-rule="evenodd"><path d="M120.14.032l69.034.019c13.68.056 17.537 4.627 14.588 18.137l-26.415 118.589c-2.83 12.484-9.332 17.598-22.465 17.637-46.023.137-92.046.152-138.068-.006-15.043-.053-19-5.148-15.759-19.404L27.602 18.892C30.997 4.148 36.099.1 51.104.057L120.14.032z" fill="#e0eaf5"/><path d="M85.365 149.813c-23.014-.008-46.029.098-69.042-.053-11.67-.076-13.792-2.83-11.165-14.244L31.965 19.407C34.3 9.013 39.337 4.419 50.473 4.522l138.083.184c11.543.011 13.481 2.48 10.89 14.187l-25.494 113.965c-3.224 14.207-6.938 16.918-21.885 16.951l-66.702.004z" fill="#2671be"/><path d="M104.948 73.951l-5.031-5.886-30.61-33.815c-4.738-5.094-6.248-10.041-.558-15.069 5.623-4.97 11.148-4.53 16.306 1.188l43.316 47.556c5.452 5.864 4.182 9.851-1.823 14.196l-68.862 50.443c-5.146 3.799-10.052 4.75-14.209-.861-4.586-6.189-.343-9.871 4.414-13.335l50.9-37.366c2.355-1.746 5.736-2.764 6.157-7.051z" fill="#fdfdfe"/><path d="M112.235 133.819c-6.196 0-12.401.213-18.583-.068-4.932-.223-7.9-2.979-7.838-8.174.06-4.912 2.536-8.605 7.463-8.738 13.542-.363 27.104-.285 40.651-.02 4.305.084 7.483 2.889 7.457 7.375-.031 5.146-2.739 9.133-8.25 9.465-6.944.42-13.931.104-20.899.104-.001.017-.001.037-.001.056z" fill="#fcfdfd"/></svg>