<?xml version="1.0" encoding="utf-8"?>
<!-- Generator: Adobe Illustrator 23.0.3, SVG Export Plug-In . SVG Version: 6.00 Build 0)  -->
<svg version="1.2" baseProfile="tiny" xmlns="http://www.w3.org/2000/svg" xmlns:xlink="http://www.w3.org/1999/xlink" x="0px"
	 y="0px" viewBox="0 0 146.7 141.2" xml:space="preserve">
<g id="Guides_x26_Backgrounds" display="none">
</g>
<g id="SUBSTANCE_INTEGRATIONS_1_">
	<g id="SUBSTANCE_IN_MAYA_1_">
	</g>
	<g id="SUBSTANCE_IN_UNREAL_ENGINE">
	</g>
	<g id="SUBSTANCE_IN_MODO">
	</g>
	<g id="SUBSTANCE_IN_LUMBERYARD">
	</g>
	<g id="SUBSTANCE_IN_UNITY">
	</g>
	<g id="SUBSTANCE_IN_HOUDINI">
	</g>
	<g id="SUBSTANCE_IN_3DSMAX">
	</g>
</g>
<g id="SUBSTANCE_PRODUCTS">
	<g id="SUBSTANCE_ACADEMY_1_">
	</g>
	<g id="SUBSTANCE_B2M">
	</g>
	<g id="SUBSTANCE_PAINTER">
		<g id="XMLID_38_">
			<g id="XMLID_40_">
				<ellipse id="XMLID_180_" fill="#E1262F" cx="64.8" cy="9.2" rx="9.2" ry="9.2"/>
				<circle id="XMLID_177_" fill="#E1262F" cx="132.2" cy="126.7" r="14.5"/>
				<circle id="XMLID_42_" fill="#E1262F" cx="6.4" cy="126.7" r="6.4"/>
			</g>
			<path id="XMLID_39_" fill="#E1262F" d="M64.7,28.1c-31,0-56.1,25.1-56.1,56.1s25.1,56.1,56.1,56.1s56.1-25.1,56.1-56.1
				S95.7,28.1,64.7,28.1z M26.8,62.5l37.8-21.8l37.8,21.8v19.8L85,76.6v-4.1L64.6,60.8l-14.9,8.7l52.8,16.9v19.8l-37.8,21.8
				l-37.8-21.8V86.3l17.5,5.5v4.1l20.4,11.8l15.2-8.8L26.8,82.1V62.5z"/>
		</g>
	</g>
	<g id="SUBSTANCE_DESIGNER">
	</g>
</g>
<g id="SUBSTANCE_BRAND">
	<g id="SUBSTANCE_H_BLACK_TYPE_1_">
	</g>
	<g id="SUBSTANCE_WHITE_TYPE_1_">
	</g>
</g>
<g id="Layer_20">
</g>
</svg>
