<svg xmlns="http://www.w3.org/2000/svg" viewBox="0 0 2120 2377"><path d="M430 2380c10.3-75 39-105.1 109.5-130.1-11.3 24.8-58.6 147.6-11.8 101.9 28.4 100.5 68.8-184.9 116.1-215.8 4 33.1-.3 65.1-12.9 95.9 20.6 12.6 89.8-185.1 115.4-186 31.8-1 53.8 68.8 75.6 85.2-16.8-38.4-77.7-261.9-70.1-351.2 31.5 1.7 99.9 199.5 115.4 226.4 65 112.8 169.7 98 289.1 83.7-21.4 22.8-162.3 165.9-103.3 192.8-38.6 11.5-306.1-139.5-306.6-211 0 184.8 191 167.5 294.8 264.9-6.4 4.2 49.9-137.9 42.6-56 6.2-38.4 79.6-49 102.8-74.9-8.9-16.5-28.8-83.1-6.7-92.3-5.6 1-40.3 19.2-45.1 14 35.5-29.9 81.2-110.8 137-98.4-55.3-12.3 112.7 168.3 144.1 225.7 28.1 51.3 68.8 105.3-1 115.2-68.4 9.7-92.5-28.5-81.9-82.2-42.6 8.3-72.2 8.8-111.1 26.3-36.4 16.4-102.2 70.1-126.3 65.8-6.6-1.2 9.8-34.3-17-32.8-14.6.8-60 40.2-72 29.2-2.9-52.7-222.3-53.9-273.5-78.6-17.4 132.8-215.9 82.3-303.1 82.3zm1136 0l38.1-125.9 122.9 11.4-37 114.5h-124zm234 0l23.5-97.1 124.8 40.8c-29.9 75.5-70.9 56.3-148.3 56.3zm-1560 0c-67.8-107.4 113.2-80.4 121.8-68.4 62.5 86.6-84 68.4-121.8 68.4zm-190 0c29.7-18 60.8-20.5 94.8-27.1-11 43.5-53 27.1-94.8 27.1zm2004 0c27.5-56.2 67.4-3.5 66.2-2.3-21.7 4.9-43.8 5.7-66.2 2.3zm68-158c-3.7-3-69.5-49.7-62.7-58.2 13.9 10.7 62.7 37.3 62.7 58.2zM1209.4 163.8c37 7.6 97.2-2.6 101.8 4.3-15.7 12.3-124.1 21.5-124.1 47.6h90.1c-23.8 4.8-22.7 9.7 3.3 14.6l-46.6 15.1s126.4 17.7 127.8 6.4c-79.1-17.8 20.8-8 29.4-4.5 2.3 1 65.2 41.6 76.1 49.4 6.1-9.1-61.6-55.9-72.1-62.9 21.1-5.6 51.9 6 51.9 6s-22.9-4.6-23.7 7.1l58.3 17.1c-6.4 5.3-16.2 9.1-19.3 16.1 32.6 15.6 16.3 19.3 74.3 33.1-15 19.6 92.3 143.1 106.9 301.7 4.4 47.9-56.9 367.1-50 362.9-1.4-11.4-6.8-15.8-16.3-13.3-4.9 107.7-16.3 203.5-36.1 309.3-12.4-57.3 13.5-106.4 12.9-164.1-.5-49.5-15.2-100.1-24.3-148.4-35.8 55.1-36.5 141.7-86.1 183.7-58.7 49.7-191.2 36.4-252.4.7 2.4 8.6 3 17.4 1.9 26.3-22-46.8-49.6-203.2-121.9-185-65 16.4-56.4 155-112 189 19.2-54-32.2-14.6-74.2-11.9-33.7 2.2-98.2-1.4-128.9-17.7-74.5-39.6-66-122.5-97.1-194.9-58 111.6 27.1 214.3-.6 317.7-9.9-23.2-38.7-126.9-45.2-195-63.6 7.8-19.3-20.9-16.7-53.4 2.4-30-1-70.8-4.2-85.1-19.7-88.3-68.8-190.5-62.4-280.8 3.1-43.2 123-220.8 110.9-229.9 37.3 0 287.3-211.3 262.1-228.1 0 .1 240.2-37.9 306.5-33.1zm-153.3 132.3c.8 3.5 64.3-3.1 68-3.1.3-15.4-57.9 2.1-68 3.1zm265-26.5c-90.6-16.4-270.1-30.8-270.1-30.8l82.6 26.2c-7.8.9-82.4 2.3-82.4 15.4 8.8 6.2 229.1-7.4 269.9-10.8zm-316.7 328.3c-15.8-68.6-74-4.2-109.5 10.6-45.5 19-104.8 5.3-148.6 28.4-44.9 23.7-72.5 152.9-84.5 188-22.4 65.6-26 93.6 43.2 93.4 79.7-.3 205.8-46.6 205.8-46.6s58.8 30.7 84.9 14c-18.2 72.8 131.8 68.5 170 46.3 18.4-10.7 109.1-70 131.5-78.9-10.1 15.1 220.8 143.2 246.1 46.7 28.9-109.9-170.5-241.5-170.5-241.5s-363.3-72.9-368.4-60.4zm307.4 569.4c71.9.4 124-9 154.3-76.6 38.8-86.6 11.9-131.2-75.3-150-76.3-16.4-232.3-28.8-244.1 74.3-11 96 85.6 147.6 165.1 152.3zM756.5 991.1l141.1-46.2c-42-18.5-170.2-18.6-189.8 3.3-34 37.9-9 143.7 23.7 173.5 118.5 107.8 274.3 12.2 291.9-121.1-1.5 28-15.6 27.6-42.2-1.2 21 30.4 9.2 37.2-35.5 20.3-10.9-24-27.9-24.8-51.2-2.4-55.2.8-110.1 7.3-165.5 7.3 0-25.4 25.2-10.4 27.5-33.5zM1232.3 471c4.7-14.1-59.3-38.6-66.4-42.2 27.9 20-34.3 1.2-57.2-1-1.9 10.9 108.7 38.6 123.6 43.2zm112.8-57.5c-1.5 3.6 108.4 60.8 123.7 43.4-8.8-2.8-102.3-32.9-123.7-43.4zm-8.7 181c2.1-12.3-109-27.3-110.3-19.8l110.3 19.8zM903.1 969c-2.9-16.5-67.3 2.9-78.4 4.8 2.4 11.8 71.6-3.8 78.4-4.8zm550.1-626.9c2.4-7.2-124.6-48-126.7-41.3l126.7 41.3zm-795.1 601c25.2 13.1 37.6 8.5 37.1-14-27.3-11.8-39.7-7.2-37.1 14zm555.8-422.6c3.4-17-91.9-13.7-90.1-18.4 71.7 28.9 6.8.3 90.1 18.4zM1521.7 952h-31.1c6.1 22.4 27.4 24.7 31.1 0zM1131 313.4c-.7 20.9 17.8 22.1 55.4 3.7 1.3-23.7-17.1-24.9-55.4-3.7zm211.2 310.9l38.4-9.6-68.4 4.1 30 5.5zm-63.5-236.1c-13.5 14.3-1.9 25.8 34.8 34.5 12.9-13.9 1.3-25.4-34.8-34.5zm66.7 205.2c-2.1 18.7 15.9 20.2 53.9 4.5 2-21-16-22.5-53.9-4.5zM1325.1 335c9-15.3-2.4-22.1-34.1-20.5-6.1 13.4 5.2 20.2 34.1 20.5zm65.3 222.7c-.8 20 17.4 23.8 54.6 11.4 4.5-20.9-13.7-24.7-54.6-11.4zm-3.7-191.7c-7.2 9.9 37.1 25.7 36.9 26l-36.9-26zm-372.5 207.5c-8.9 13.9 10.1 11.7 16.9 7.9l-16.9-7.9zm49.7-34c4.8-9.9-2.7-14.7-22.5-14.5-6.1 10.2 1.4 15 22.5 14.5zm211-98.9c6.8-6.1 3.2-11.3-10.8-15.7-7.5 6.5-3.9 11.7 10.8 15.7zM992 362c.6 15.2 13.6 15.2 39 0h-39zm595 160.7c-7 3.8-4.7 9.4 7 16.6 8.3-4.1 6-9.7-7-16.6zm-430.8-45c2.4-8.2-3.8-10.4-18.5-6.6-2.4 8.6 3.7 10.8 18.5 6.6zm30.9-209.8c0 3.7 26.3 3.7 26.3 0h-26.3zm413.3 247.5c-6.8-21-14-26.6-21.8-16.8l21.8 16.8zm-49.8 424.5c4.6 3.6 18.4-13.8 13.4-17.7l-13.4 17.7z"/><path d="M823.4 1583.2c24.2-7 37.2 25.9 31.2 43.6 31.6-15.2 54.4 27.8 83 10.6-18.3 65.2 15.2-7 14.5-3-10.4 68.3 11.9 23.4 14.2 14.9 5 40.4 36.6 5.9 36.6 33.1.3-18.4 6.9-32.6 19.9-42.7 7.9 5 6 34.7 7.2 42.1 11.5-43.9 28.8-20.9 34.9-3.9-2.2-6.2-.7-31.7-1.1-38.2 14.7 13.2 26.5 28.5 35.4 46 9.7-31.6 16.9-20 33.4-2.3-20.2-47.6 7.7-12.7 10.8-9.4 8.6-5 9.4-13.1 2.6-24.4 48.1 39.9 52.9 6.6 52-17.5 24.7 17.7 44.9-35.9 40.3-47.8 27.8 22.7 93-95.6 83-126.9 20.5 24.2 64.3-12.3 76.4-32.2 34.2-56.4 28.6-121.5-26.6-163.7 115.4-11.3 17.9 177.5 27.8 227.6 16.8-21.5 80.2-14.1 75.8-63.9 126.3 137.2-432.2 483.1-447.9 482-13.9-1-145.1-124.8-151.7-77.9-37.5-40.6-72.6-84.7-92.5-136.9-18.6-49.1-12.8-107.6-36.1-154.3-37.8-75.6-87.4-87.1-39.8-158.9-5.8 26-.5 42.8 25.4 22.4-3.9 24.8-3 25.1-3 55.6 13.3-17.1 23.1-36.1 29.3-56.9 17.3 13.6 80.4 159.2 65 182.9zm387.9-313.3c-21.3 16.5-51.4 104.8-70.9 56.1-16.4 183.9 164.6-22.2 197.8 62.6-167.5 53.9-343.8 36.9-516.1 25.3 28.5-51.3 152.1-36.7 155.7-42.5-1.6 8.5-18.3-140.3-12.1-119.5 14.5 48.9 87.6 37.9 138.1 36.2 29.2-1 91.3-48.3 107.5-18.2zm328 805.4c-11.1-9.9-99.2-75.8-101.1-90.2-2.9-21.4 37.9-77.2 46.6-94.9 13.5 9.9 106.8 66 110.8 81.1 4.8 18.1-48.2 89.2-56.3 104zm269.2-22l-49.9 104.9-116.4-8.5c-2.5-105.9 94.1-100.8 166.3-96.4zm190.9 178.1l-130.2-34.3 46.7-94.9 119.2 61.9-35.7 67.3zm-858.8-260.6l-43.1 28 65.3 23.1c-81.7 88.2-358.2 2.5-48.1-66m444.7-220.2c66.7 53.2 88.8 87.4 64.8 168.3-65.9-67.6-102.4-78.2-64.8-168.3zm-175.8 348.8c20.9 22.2 182.4 106.9 51.1 166.6-13.4-19-112.1-100.5-51.1-166.6z"/><path d="M605.7 2051.1c5.4 42.2-65.6 134.4-112.4 128.8 32-81.6 24.6-98.8 112.4-128.8zm928.4-304.7s-40.3-61.7-65.9-61.7c14.8-16.3 110.3-3.7 110.3-3.7l-44.4 65.4zM1293.6 1285c43.2-13 96.3 46.3 87.8 83.7l-87.8-83.7zm-966.5 901.8c-1.6-31.1 52.2-48.4 70.4-58.7-10.6 65.9-10.4 55.2-70.4 58.7zM1443.2 204.9c-15.3 14.4-87.8 2.3-29.7 18.2-54 12.3-64-17.2-123.9-27.6 7.5-4.1 102.9-42.4 105.1-22.2-6.9.8-115.5 21.4-46 15.2-43.1 29.8 42.8 9.3 62.1 9.3-43.2 15.3-1.8 10.2 32.4 7.1zM630.3 2070l46.1-134.8c-6.9 47.6 7.7 102.9-46.1 134.8zm-511.1 208.7l88.2-48.9c-2.7 17.3-60.8 52.6-88.2 48.9zm1287.3-2032l-66.8-10.8c2.9-16 68.3 5.9 66.8 10.8zm-322.4 1263.1c-22.5 11-33.6 9.7-33.4-3.8 24.7-13.3 35.9-12.1 33.4 3.8zm-293-225.5l-26.2 38.8c-5.9-3.8 20.4-42.5 26.2-38.8zm511.1-1061.2c20.3-11.4 29.9-10.5 28.8 2.8-19.7 9.6-29.3 8.7-28.8-2.8zm-35.3-19.6h26.8c-.8 10.1-26.8.1-26.8 0zm10 746.5c54.3 11.2 112 15.6 150.3 61.6-52-19.6 5.1 9.6 26 9.6-19.2 23.1-96.3 4.2-126.8 2.5-30.2-1.7-137 13.7-105.2-23.9-30 7.7-50.2-7.9-50.8-35.8-.3-16.1 94.4-28.5 104.1-30.7l2.4 16.7zm13.9 23.2l114.1 37.3c-13.3-16.9-98.6-76.1-114.1-37.3zm-14 76.8c18.7 13.1 84.7 2.6 115.4 10.8-21.4 1.4-24.9 4.5-30.5 21l-126.4-21.9c-.9-19.9 13-23.2 41.5-9.9zm-507.4 1.6l172.4-7.7c-19.4 29.6-102 31.8-172.4 7.7z"/></svg>