<svg xmlns="http://www.w3.org/2000/svg" xmlns:xlink="http://www.w3.org/1999/xlink" viewBox="0 0 457.478 457.478"><path d="M423.173 110.709L233.739 1.34a10 10 0 0 0-10 0L34.306 110.709a10 10 0 0 0-5 8.66v218.739a10 10 0 0 0 5 8.66l189.434 109.37c1.547.893 3.273 1.34 5 1.34s3.453-.447 5-1.34l189.434-109.37a10 10 0 0 0 5-8.66V119.369c-.001-3.572-1.908-6.874-5.001-8.66zm-15 206.884l-6.459-3.729c-4.781-2.762-10.898-1.123-13.66 3.66s-1.123 10.899 3.66 13.661l9.226 5.327-162.201 93.647V241.521c.128.005.255.024.383.024 3.456 0 6.817-1.793 8.67-5.001a9.96 9.96 0 0 0 .932-7.799l159.449-92.058v180.906zm-338.747-.069a10 10 0 0 0-13.66-3.66l-6.46 3.729V136.688l159.449 92.058c-.737 2.527-.488 5.338.932 7.798 1.853 3.208 5.213 5.001 8.67 5.001.127 0 .255-.02.383-.024v188.637L56.538 336.511l9.227-5.327a10 10 0 0 0 3.661-13.66zM228.74 41.583c5.522 0 10-4.477 10-10V27.32l159.431 92.048-159.634 92.165c-.931-4.559-4.964-7.989-9.797-7.989s-8.867 3.43-9.798 7.99L59.307 119.368 218.74 27.32v4.264c0 5.522 4.478 9.999 10 9.999zm75.263 238.961l17.839 10.3c1.575.909 3.294 1.341 4.99 1.341 3.456 0 6.817-1.793 8.67-5.001a10 10 0 0 0-3.66-13.66l-17.839-10.3a10 10 0 1 0-10 17.32zm-43.856-25.32l17.84 10.299c1.575.91 3.294 1.341 4.99 1.341 3.456 0 6.818-1.793 8.67-5.001a10 10 0 0 0-3.66-13.66l-17.84-10.299a10 10 0 1 0-10 17.32zm87.71 50.64l17.84 10.3c1.575.909 3.294 1.341 4.99 1.341 3.456 0 6.818-1.793 8.67-5.001a10 10 0 0 0-3.66-13.66l-17.84-10.3a10 10 0 1 0-10 17.32z"/><path d="M174.501 266.865c1.696 0 3.416-.432 4.99-1.341l17.84-10.3a10 10 0 0 0 3.66-13.66c-2.761-4.783-8.877-6.421-13.66-3.66l-17.84 10.3a10 10 0 0 0-3.66 13.66c1.852 3.209 5.213 5.001 8.67 5.001zm-87.71 50.64c1.696 0 3.415-.432 4.99-1.341l17.84-10.299a10 10 0 0 0 3.66-13.66c-2.76-4.782-8.874-6.421-13.66-3.66l-17.84 10.299a10 10 0 0 0-3.66 13.66c1.852 3.208 5.213 5.001 8.67 5.001zm43.855-25.32c1.696 0 3.416-.432 4.99-1.341l17.839-10.3a10 10 0 0 0 3.66-13.66c-2.761-4.783-8.877-6.421-13.66-3.66l-17.839 10.3a10 10 0 0 0-3.66 13.66c1.853 3.208 5.213 5.001 8.67 5.001zM218.74 82.223c0 5.523 4.478 10 10 10s10-4.477 10-10V61.624c0-5.523-4.478-10-10-10s-10 4.477-10 10v20.599z"/><use xlink:href="#B"/><use xlink:href="#B" y="50.64"/><defs ><path id="B" d="M228.74 102.264c-5.522 0-10 4.477-10 10v20.599c0 5.523 4.478 10 10 10s10-4.477 10-10v-20.599a10 10 0 0 0-10-10z"/></defs></svg>