<svg xmlns="http://www.w3.org/2000/svg" width="24" height="24"><path d="M8.086 18.611l5.996-14.005a1 1 0 0 1 1.878.677l-.04.11-5.996 14.005a1 1 0 0 1-1.878-.677l.04-.11 5.996-14.005-5.996 14.005zm-5.793-7.318l4-4a1 1 0 0 1 1.497 1.32l-.083.094L4.414 12l3.293 3.293a1 1 0 0 1-1.32 1.497l-.094-.083-4-4a1 1 0 0 1-.083-1.32l.083-.094 4-4-4 4zm13.999-4.001a1 1 0 0 1 1.32-.083l.094.083 4.001 4.001a1 1 0 0 1 .083 1.32l-.083.094-4.001 3.996a1 1 0 0 1-1.497-1.321l.083-.094 3.293-3.288-3.293-3.294a1 1 0 0 1 0-1.414z" fill="#212121"/><defs /></svg>