<svg xmlns="http://www.w3.org/2000/svg" viewBox="0 0 30.849 30.849"><path d="M28.648 2.202H2.206C.986 2.202 0 3.187 0 4.404v22.039c0 1.215.986 2.203 2.206 2.203h26.442c1.213 0 2.201-.988 2.201-2.203V4.404c.001-1.217-.988-2.202-2.201-2.202zM10.537 3.856a1.1 1.1 0 0 1 1.1 1.103 1.1 1.1 0 0 1-1.1 1.099c-.608 0-1.104-.491-1.104-1.099s.495-1.103 1.104-1.103zm-3.373 0a1.1 1.1 0 1 1 0 2.202 1.1 1.1 0 1 1 0-2.202zm-3.309 0a1.1 1.1 0 1 1 0 2.202 1.1 1.1 0 1 1 0-2.202zm24.793 22.587H2.206V7.736h26.442v18.707zm0-20.912H13.22V4.43h15.428v1.101z"/></svg>