<svg xmlns="http://www.w3.org/2000/svg" xmlns:xlink="http://www.w3.org/1999/xlink" viewBox="0 0 502 502"><path d="M420.5 0H148a10 10 0 0 0-7.071 2.929l-66.5 66.5C72.554 71.305 71.5 73.848 71.5 76.5V492c0 5.522 4.477 10 10 10h339c5.523 0 10-4.478 10-10V10c0-5.522-4.477-10-10-10zm-10 482h-319V80.643L152.142 20H410.5v462zM132 121c0 5.522 4.477 10 10 10h150c5.523 0 10-4.478 10-10s-4.477-10-10-10H142c-5.523 0-10 4.478-10 10z"/><use xlink:href="#B"/><use xlink:href="#B" y="70"/><use xlink:href="#B" y="140"/><path d="M330 131h30c5.523 0 10-4.478 10-10s-4.477-10-10-10h-30c-5.523 0-10 4.478-10 10s4.477 10 10 10z"/><defs ><path id="B" d="M360 181H142c-5.523 0-10 4.478-10 10s4.477 10 10 10h218c5.523 0 10-4.478 10-10s-4.477-10-10-10z"/></defs></svg>