<svg xmlns="http://www.w3.org/2000/svg" viewBox="0 0 510.994 510.994"><path d="M510.994 43.546l-.003-.224-.003-.161-.024-.345-.022-.206-.023-.191-.029-.169-.029-.163-.039-.184-.051-.224-.034-.13-.05-.179-.055-.172-.081-.241-.022-.069-.017-.039-.066-.169-.08-.182-.101-.225-.055-.119-.067-.13-.12-.21-.072-.136-.038-.057-.079-.133-.054-.082-.161-.229-.128-.183-.099-.13-.034-.044-.188-.219-.161-.187-.109-.116-.228-.221-.196-.187-.103-.088-.247-.198-.225-.176-.106-.073-.089-.067c-.06-.041-.124-.074-.185-.113l-.227-.144-.109-.06-.323-.17-.203-.102-.117-.052-.354-.144-.188-.074-.139-.046-.186-.063-.188-.05-.169-.048-.17-.038-.17-.039-.224-.039-.138-.025-.197-.025-.147-.02-.244-.019-.133-.01-.206-.006-.138-.004-.242.003-.15.003-.192.013-.145.01-.224.025-.182.023-.16.027-.164.028-.201.042-.214.049-.124.033-.178.049-.189.061-.23.078-.069.022-.099.037-.036.013L4.888 220.463c-.024.009-.047.021-.071.031l-.606.26-.271.146-.371.206-.3.202-.305.211-.283.233-.28.239-.251.252-.263.273-.226.278-.232.293-.227.343-.174.27-.341.651-.28.697c-.031.088-.052.178-.079.267l-.126.438-.068.351-.068.37-.034.358-.031.375.001.341.007.395.034.33.046.399.079.384.071.333c.062.239.137.475.222.706.005.015.009.022.012.029a7.46 7.46 0 0 0 .435.939l.103.19c.166.286.35.563.553.826l.135.164c.188.229.389.449.605.656l.107.107a7.46 7.46 0 0 0 .776.621l.189.125a7.55 7.55 0 0 0 .734.425l.167.087.074.039 89.224 41.18a24.58 24.58 0 0 1 13.757 17.44l28.808 144.041c.006.029.017.054.023.083.071.338.164.67.281.997l.054.136a7.53 7.53 0 0 0 .403.877l.057.11c.166.294.354.578.562.852l.128.159c.181.226.377.444.589.652l.125.127c.021.019.038.041.059.06.228.209.467.395.712.57l.162.111c.587.398 1.215.703 1.867.917l.144.047c.333.102.672.179 1.014.233.023.004.044.012.067.016.032.005.063.002.095.007.336.045.673.076 1.01.076.013 0 .026-.002.04-.002.032 0 .064-.004.096-.005a7.64 7.64 0 0 0 .943-.08l.223-.034c.338-.059.673-.137 1.002-.242l.033-.012c.317-.104.626-.234.93-.381l.164-.081a7.45 7.45 0 0 0 1.682-1.186l.191-.187.221-.216 70.541-76.812 102.514 108.916a7.75 7.75 0 0 0 .424.406l.14.129.411.318.208.157.283.175.38.23c.027.015.057.027.085.041l.61.29.079.029a7.74 7.74 0 0 0 .619.222l.425.108.281.07a7.43 7.43 0 0 0 1.472.148c.021 0 .042-.004.063-.005a7.57 7.57 0 0 0 .901-.066l.229-.032a7.39 7.39 0 0 0 .936-.209l.091-.03c.291-.09.577-.2.858-.326l.143-.064a7.39 7.39 0 0 0 .85-.473l.148-.103c.218-.149.429-.31.634-.485l.29-.247a7.34 7.34 0 0 0 .57-.603l.128-.164c.179-.222.342-.451.492-.687l.11-.175a7.36 7.36 0 0 0 .467-.92l.019-.038L510.671 45.676s.031-.119.047-.179.036-.117.051-.177.027-.121.041-.181l.037-.161.037-.213.027-.146.044-.351.018-.228.012-.142.006-.218.003-.134zM118.585 280.015l36.732-21.739a7.5 7.5 0 1 0-7.64-12.908l-38.328 22.684a39.35 39.35 0 0 0-9.486-6.186L27.028 228.25 427.822 79.567 175.265 229.04a7.5 7.5 0 0 0-2.634 10.274c1.4 2.366 3.897 3.681 6.461 3.681 1.299 0 2.615-.337 3.813-1.047L453.339 81.895 317.63 214.123a7.5 7.5 0 0 0-.138 10.605c1.47 1.509 3.42 2.266 5.372 2.266 1.887 0 3.775-.708 5.233-2.128L482.563 74.363l-157.55 379.551L220.172 342.52c-2.147-2.281-4.652-4.058-7.379-5.304l90.674-88.349A7.5 7.5 0 0 0 293 238.124l-106.737 104c-.241.235-.456.485-.658.743a23.93 23.93 0 0 0-3.236 4.619l-35.602 66.118-24.724-123.62c-.7-3.499-1.883-6.843-3.458-9.969zm59.936 106.254l17.055-31.673a8.41 8.41 0 0 1 6.377-4.398c2.744-.361 5.401.589 7.296 2.602l.004.004-30.732 33.465z"/><defs /></svg>