<svg xmlns="http://www.w3.org/2000/svg" width="800" height="800" viewBox="0 0 20 20" xmlns:v="https://vecta.io/nano"><path d="M12.744 18.458c-.482 0-.872-.392-.872-.877s.39-.876.872-.876.872.391.872.876-.39.877-.872.877M10.072 20c5.078 0 4.761-2.214 4.761-2.214l-.006-2.293H9.982v-.689h6.769S20 15.176 20 10.026s-2.835-4.968-2.835-4.968h-1.693v2.39s.091 2.85-2.79 2.85H7.876s-2.7-.043-2.7 2.624v4.409S4.766 20 10.072 20M7.257 1.542c.482 0 .871.392.871.877s-.389.876-.871.876-.872-.391-.872-.876.39-.877.872-.877M9.928 0c-5.077 0-4.76 2.214-4.76 2.214l.006 2.293h4.845v.689h-6.77S0 4.824 0 9.974s2.836 4.968 2.836 4.968h1.692v-2.39s-.091-2.85 2.791-2.85h4.805s2.7.043 2.7-2.624V2.669S15.234 0 9.928 0" fill-rule="evenodd"/></svg>