<svg xmlns="http://www.w3.org/2000/svg" viewBox="0 0 512 512"><path d="M503.83 78.979H8.17A8.17 8.17 0 000 87.149v337.702a8.17 8.17 0 008.17 8.17h495.66a8.17 8.17 0 008.17-8.17V87.149a8.17 8.17 0 00-8.17-8.17zm-8.17 337.702H16.34V95.319h479.32v321.362z"/><path d="M473.351 386.123L330.108 256l143.24-130.123a8.171 8.171 0 00.555-11.541 8.172 8.172 0 00-11.542-.553L256 301.246 49.642 113.786a8.171 8.171 0 00-11.542.553 8.17 8.17 0 00.554 11.541L181.892 256 38.655 386.12a8.17 8.17 0 00-.553 11.541 8.15 8.15 0 006.05 2.677 8.142 8.142 0 005.491-2.123l144.4-131.177 56.464 51.293a8.15 8.15 0 005.494 2.123 8.147 8.147 0 005.494-2.123l56.465-51.294 144.404 131.181a8.139 8.139 0 005.491 2.123 8.17 8.17 0 005.496-14.218z"/></svg>