<svg xmlns="http://www.w3.org/2000/svg" viewBox="0 0 32 32"  fill="#161615"><path d="M24 22v5a1 1 0 0 1-1 1H5a1 1 0 0 1-1-1V9a1 1 0 0 1 1-1h5a2 2 0 0 0 2-2h0a2 2 0 0 0-2-2H3a3 3 0 0 0-3 3v22a3 3 0 0 0 3 3h22a3 3 0 0 0 3-3h0v-7a2 2 0 0 0-2-2h0a2 2 0 0 0-2 2zM18 0h12a2 2 0 0 1 2 2h0a2 2 0 0 1-2 2H18a2 2 0 0 1-2-2h0a2 2 0 0 1 2-2z"/><path d="M32 2v12a2 2 0 0 1-2 2h0a2 2 0 0 1-2-2V2a2 2 0 0 1 2-2h0a2 2 0 0 1 2 2z"/><path d="M8.58 20.61l20-20a2 2 0 0 1 2.81 0h0a2 2 0 0 1 0 2.81l-20 20a2 2 0 0 1-2.81 0h0a2 2 0 0 1 0-2.81z"/></svg>