<svg version="1.2" baseProfile="tiny" xmlns="http://www.w3.org/2000/svg" viewBox="153.5 -162.5 936 936"><path fill="#1C1C1C" d="M183.9 773.5c-16.7 0-30.4-13.6-30.4-30.4v-875.3c0-16.7 13.6-30.4 30.4-30.4h875.3c16.7 0 30.4 13.6 30.4 30.4v875.3c0 16.7-13.6 30.4-30.4 30.4H183.9z"/><path fill="#474747" d="M193.5-119.5h256v855h-256v-855zm305 0h545v855h-545v-855z"/><path fill="#8C8C8C" d="M555.5-36.5c-5.5 0-10-4.5-10-10s4.5-10 10-10h434c5.5 0 10 4.5 10 10s-4.5 10-10 10h-434z"/><path fill="none" d="M989.5-56c5.2 0 9.5 4.3 9.5 9.5s-4.3 9.5-9.5 9.5h-434c-5.2 0-9.5-4.3-9.5-9.5s4.3-9.5 9.5-9.5h434m0-1h-434c-5.8 0-10.5 4.7-10.5 10.5S549.7-36 555.5-36h434c5.8 0 10.5-4.7 10.5-10.5S995.3-57 989.5-57z"/><path fill="#8C8C8C" d="M225.5-36.5c-5.5 0-10-4.5-10-10s4.5-10 10-10h76c5.5 0 10 4.5 10 10s-4.5 10-10 10h-76zm0 49c-5.5 0-10-4.5-10-10s4.5-10 10-10h115c5.5 0 10 4.5 10 10s-4.5 10-10 10h-115zm0 58c-5.5 0-10-4.5-10-10s4.5-10 10-10h92c5.5 0 10 4.5 10 10s-4.5 10-10 10h-92zm0 58c-5.5 0-10-4.5-10-10s4.5-10 10-10h147c5.5 0 10 4.5 10 10s-4.5 10-10 10h-147zm424-106c-5.5 0-10-4.5-10-10s4.5-10 10-10h340c5.5 0 10 4.5 10 10s-4.5 10-10 10h-340zm0 59c-5.5 0-10-4.5-10-10s4.5-10 10-10h260c5.5 0 10 4.5 10 10s-4.5 10-10 10h-260zm-97 59c-5.5 0-10-4.5-10-10s4.5-10 10-10h434c5.5 0 10 4.5 10 10s-4.5 10-10 10h-434zm97 59c-5.5 0-10-4.5-10-10s4.5-10 10-10h163c5.5 0 10 4.5 10 10s-4.5 10-10 10h-163zm92 59c-5.5 0-10-4.5-10-10s4.5-10 10-10h245c5.5 0 10 4.5 10 10s-4.5 10-10 10h-245zm0 59c-5.5 0-10-4.5-10-10s4.5-10 10-10h248c5.5 0 10 4.5 10 10s-4.5 10-10 10h-248zm-186 59c-5.5 0-10-4.5-10-10s4.5-10 10-10h165c5.5 0 10 4.5 10 10s-4.5 10-10 10h-165zm0 59c-5.5 0-10-4.5-10-10s4.5-10 10-10h298c5.5 0 10 4.5 10 10s-4.5 10-10 10h-298zm93 59c-5.5 0-10-4.5-10-10s4.5-10 10-10h261c5.5 0 10 4.5 10 10s-4.5 10-10 10h-261zm0 59c-5.5 0-10-4.5-10-10s4.5-10 10-10h297c5.5 0 10 4.5 10 10s-4.5 10-10 10h-297zm-93 59c-5.5 0-10-4.5-10-10s4.5-10 10-10h165c5.5 0 10 4.5 10 10s-4.5 10-10 10h-165zm93 59c-5.5 0-10-4.5-10-10s4.5-10 10-10h338c5.5 0 10 4.5 10 10s-4.5 10-10 10h-338z"/><circle fill="#993434" cx="1030" cy="-141" r="13.5"/><circle fill="#279B66" cx="990" cy="-141" r="13.5"/><circle fill="#3E64AF" cx="949" cy="-141" r="13.5"/></svg>