<svg xmlns="http://www.w3.org/2000/svg" fill="#3b45fd" height="160" width="160"><path d="M80 0a80.62 80.62 0 0 1 12.207.925l-1.144 7.413a73.06 73.06 0 0 0-22.125 0L67.793.925A80.62 80.62 0 0 1 80 0zm18.985 2.266l-1.78 7.288c7.31 1.779 14.185 4.666 20.439 8.473l3.895-6.411a79.52 79.52 0 0 0-22.554-9.35zm28.294 13.193l-4.432 6.051a72.91 72.91 0 0 1 15.643 15.644l6.051-4.432a80.46 80.46 0 0 0-17.262-17.262zm21.105 23.003l-6.411 3.894c3.807 6.254 6.694 13.13 8.473 20.439l7.288-1.78a79.52 79.52 0 0 0-9.35-22.554zm10.691 29.331l-7.414 1.144a72.96 72.96 0 0 1 .839 11.062c0 3.761-.286 7.456-.839 11.063l7.414 1.144a80.67 80.67 0 0 0 0-24.413zm-17.102 49.852a72.08 72.08 0 0 0 8.473-20.44l7.288 1.78a79.52 79.52 0 0 1-9.35 22.554zm-3.483 5.202l6.051 4.432a80.46 80.46 0 0 1-17.262 17.262l-4.433-6.051a72.91 72.91 0 0 0 15.644-15.643zm-20.846 19.126l3.894 6.411a79.52 79.52 0 0 1-22.554 9.35l-1.78-7.288a72.05 72.05 0 0 0 20.439-8.473zm-26.582 9.688l1.144 7.414a80.66 80.66 0 0 1-12.207.925 80.67 80.67 0 0 1-12.207-.925l1.144-7.413c3.605.552 7.3.838 11.063.838a72.93 72.93 0 0 0 11.062-.839zm-28.267-1.213l-1.779 7.286c-6.059-1.475-11.848-3.639-17.278-6.406l-7.593 1.772-1.704-7.304 10.26-2.394 2.441 1.243a71.92 71.92 0 0 0 15.654 5.803zm-34.685-3.175l1.704 7.304-13.015 3.036c-8.661 2.021-16.434-5.752-14.413-14.412l3.037-13.015 7.304 1.704-3.037 13.015c-.758 3.248 2.157 6.162 5.405 5.405zM14.204 125.56L6.9 123.856l1.772-7.593a79.44 79.44 0 0 1-6.406-17.279l7.286-1.779a71.95 71.95 0 0 0 5.803 15.654l1.243 2.441zM8.338 91.062L.925 92.207a80.62 80.62 0 0 1 0-24.414l7.413 1.144C7.786 72.544 7.5 76.239 7.5 80a73.07 73.07 0 0 0 .838 11.062z"/><path d="M9.554 62.795l-7.288-1.78a79.52 79.52 0 0 1 9.35-22.554l6.411 3.894a72.07 72.07 0 0 0-8.473 20.44zM21.51 37.153l-6.051-4.432a80.46 80.46 0 0 1 17.262-17.262l4.432 6.051c-5.977 4.386-11.258 9.666-15.644 15.644zm20.846-19.126l-3.894-6.411a79.52 79.52 0 0 1 22.554-9.349l1.78 7.288a72.07 72.07 0 0 0-20.44 8.473zM145 80c0 35.899-29.101 65-65 65-11.387 0-22.089-2.928-31.397-8.072-.896-.495-1.942-.658-2.939-.426l-28.913 6.747 6.747-28.914c.233-.997.069-2.043-.426-2.939C17.928 102.089 15 91.387 15 80c0-35.898 29.101-65 65-65s65 29.102 65 65z"/></svg>